<svg xmlns="http://www.w3.org/2000/svg" viewBox="0 0 576 512"><path d="M564 64H224V24c0-13.2-10.8-24-24-24H88C74.8 0 64 10.8 64 24v40H12C5.4 64 0 69.4 0 76v8c0 6.6 5.4 12 12 12h52v40c0 13.2 10.8 24 24 24h112c13.2 0 24-10.8 24-24V96h340c6.6 0 12-5.4 12-12v-8c0-6.6-5.4-12-12-12zm-372 64H96V32h96v96zm372 288H320v-40c0-13.2-10.8-24-24-24H184c-13.2 0-24 10.8-24 24v40H12c-6.6 0-12 5.4-12 12v8c0 6.6 5.4 12 12 12h148v40c0 13.2 10.8 24 24 24h112c13.2 0 24-10.8 24-24v-40h244c6.6 0 12-5.4 12-12v-8c0-6.6-5.4-12-12-12zm-276 64h-96v-96h96v96zm276-256h-84v-40c0-13.2-10.8-24-24-24H344c-13.2 0-24 10.8-24 24v40H12c-6.6 0-12 5.4-12 12v8c0 6.6 5.4 12 12 12h308v40c0 13.2 10.8 24 24 24h112c13.2 0 24-10.8 24-24v-40h84c6.6 0 12-5.4 12-12v-8c0-6.6-5.4-12-12-12zm-116 64h-96v-96h96v96z"/></svg>