<svg xmlns="http://www.w3.org/2000/svg" viewBox="0 0 576 512"><path d="M564 224h-52v-40c0-13.2-10.8-24-24-24H376c-13.2 0-24 10.8-24 24v40H12c-6.6 0-12 5.4-12 12v8c0 6.6 5.4 12 12 12h340v40c0 13.2 10.8 24 24 24h112c13.2 0 24-10.8 24-24v-40h52c6.6 0 12-5.4 12-12v-8c0-6.6-5.4-12-12-12zm-100 48h-64v-64h64v64zm100 144H320v-40c0-13.2-10.8-24-24-24H184c-13.2 0-24 10.8-24 24v40H12c-6.6 0-12 5.4-12 12v8c0 6.6 5.4 12 12 12h148v40c0 13.2 10.8 24 24 24h112c13.2 0 24-10.8 24-24v-40h244c6.6 0 12-5.4 12-12v-8c0-6.6-5.4-12-12-12zm-292 48h-64v-64h64v64zM564 64H224V24c0-13.2-10.8-24-24-24H88C74.8 0 64 10.8 64 24v40H12C5.4 64 0 69.4 0 76v8c0 6.6 5.4 12 12 12h52v40c0 13.2 10.8 24 24 24h112c13.2 0 24-10.8 24-24V96h340c6.6 0 12-5.4 12-12v-8c0-6.6-5.4-12-12-12zm-388 48h-64V48h64v64z"/></svg>