<svg xmlns="http://www.w3.org/2000/svg" viewBox="0 0 512 512"><path d="M136 96H96V44c0-6.6-5.4-12-12-12h-8c-6.6 0-12 5.4-12 12v52H24c-13.2 0-24 10.8-24 24v112c0 13.2 10.8 24 24 24h40v212c0 6.6 5.4 12 12 12h8c6.6 0 12-5.4 12-12V256h40c13.2 0 24-10.8 24-24V120c0-13.2-10.8-24-24-24zm-24 112H48v-64h64v64zm200 48h-40V44c0-6.6-5.4-12-12-12h-8c-6.6 0-12 5.4-12 12v212h-40c-13.2 0-24 10.8-24 24v112c0 13.2 10.8 24 24 24h40v52c0 6.6 5.4 12 12 12h8c6.6 0 12-5.4 12-12v-52h40c13.2 0 24-10.8 24-24V280c0-13.2-10.8-24-24-24zm-24 112h-64v-64h64v64zm200-240h-40V44c0-6.6-5.4-12-12-12h-8c-6.6 0-12 5.4-12 12v84h-40c-13.2 0-24 10.8-24 24v112c0 13.2 10.8 24 24 24h40v180c0 6.6 5.4 12 12 12h8c6.6 0 12-5.4 12-12V288h40c13.2 0 24-10.8 24-24V152c0-13.2-10.8-24-24-24zm-24 112h-64v-64h64v64z"/></svg>