<svg xmlns="http://www.w3.org/2000/svg" viewBox="0 0 576 512"><path d="M576 428v40c0 6.6-5.4 12-12 12H288v8c0 13.3-10.7 24-24 24h-80c-13.3 0-24-10.7-24-24v-8H12c-6.6 0-12-5.4-12-12v-40c0-6.6 5.4-12 12-12h148v-8c0-13.3 10.7-24 24-24h80c13.3 0 24 10.7 24 24v8h276c6.6 0 12 5.4 12 12zM564 32H192v-8c0-13.3-10.7-24-24-24H88C74.7 0 64 10.7 64 24v8H12C5.4 32 0 37.4 0 44v40c0 6.6 5.4 12 12 12h52v8c0 13.3 10.7 24 24 24h80c13.3 0 24-10.7 24-24v-8h372c6.6 0 12-5.4 12-12V44c0-6.6-5.4-12-12-12zm0 192h-52v-8c0-13.3-10.7-24-24-24h-80c-13.3 0-24 10.7-24 24v8H12c-6.6 0-12 5.4-12 12v40c0 6.6 5.4 12 12 12h372v8c0 13.3 10.7 24 24 24h80c13.3 0 24-10.7 24-24v-8h52c6.6 0 12-5.4 12-12v-40c0-6.6-5.4-12-12-12z"/></svg>